<?xml version="1.0" encoding="UTF-8" standalone="no"?>
<svg id="svg28" xmlns="http://www.w3.org/2000/svg" transform="" height="80px" viewBox="228 344.5 570 80" width="570px" version="1.1">
 <g id="logo-group" transform="">
  <g id="icon" fill="#0066b4" transform="">
   <path id="path9" d="m365.233395 364.124818c3.462426-7.2133875 4.47230025-13.5611685 1.00987425-16.8793268-4.4723-4.183764-12.551294-1.009873-16.879327 1.009875-4.616568-2.164016-9.665939-3.462426-15.148114-3.462426-19.18761 0-34.62426 15.436649-34.62426 34.62426 0 5.4821745 1.29840975 10.6758135 3.60669375 15.2923815-3.462426 7.2133875-4.3280325 13.4169008-1.00987425 16.8793268 1.4426775 1.4426775 6.0592455 4.47230025 16.8793268-1.00987425 29.142086 14.282507 60.736723-16.735059 46.165681-46.454216zm-60.592455 44.723003c-1.731213-1.58694525-1.4426775-5.4821745 0.72133875-10.5315458 1.731213 2.74108725 4.039497 5.193639 6.49204875 7.2133875 6.6363165-2.16401625 17.4563978-9.08886825 28.5650145-20.197485 12.2627588-12.2627588 18.1777365-22.7943045 20.197485-28.5650145-2.16401625-2.45255175-4.616568-4.616568-7.2133875-6.49204875 2.74108725-1.154142 8.078994-2.74108725 10.5315458-0.72133875 4.3280325 3.89522925-3.462426 20.774556-20.774556 38.2309538-13.272633 13.128366-33.181583 25.968195-38.519489 21.063092z"/>
  </g>
  <g id="title" aria-label="YOUR LOGO" fill="#007cbc" style="font-variant-ligatures:none" transform="">
   <path id="path14" style="font-variant-ligatures:none" d="m301.971248 345.50448l-10.1304 50.36256q-1.64016 8.39376-6.65712 14.66496-4.92048 6.2712-12.44592 9.648t-16.59456 3.3768q-8.29728 0-15.82272-2.8944-7.42896-2.79792-11.77056-7.33248l8.6832-11.19168q3.18384 2.99088 8.00784 4.72752 4.92048 1.64016 9.55152 1.64016 4.92048 0 9.06912-1.83312 4.24512-1.9296 7.04304-5.20992 2.8944-3.28032 3.66624-7.33248l1.06128-5.11344q-4.05216 4.43808-9.1656 6.85008t-10.99872 2.412q-9.35856 0-14.85792-5.49936-5.40288-5.49936-5.40288-14.66496 0-2.99088 0.57888-6.2712l5.3064-26.33904h17.55936l-5.11344 26.0496q-0.28944 1.54368-0.28944 3.08736 0 3.8592 2.31552 6.07824 2.412 2.12256 6.65712 2.12256 5.98176 0 10.80576-3.8592 4.92048-3.8592 6.46416-9.84096l4.72752-23.6376z"/>
   <path id="path18" style="font-variant-ligatures:none" d="m388.979458 414.00528q-8.6832 0-13.70016-4.92048t-5.01696-13.41072q0-3.3768 0.67536-6.46416l8.6832-43.70544h17.94528l-7.91136 39.46032q-0.38592 1.54368-0.38592 3.3768 0 4.3416 2.60496 6.94656 2.60496 2.50848 7.13952 2.50848 6.17472 0 10.90224-3.95568 4.824-4.05216 6.2712-10.41984l7.62192-37.91664h17.65584l-13.5072 67.63248h-17.65584l2.02608-10.1304q-4.53456 5.3064-10.51632 8.2008-5.98176 2.79792-12.83184 2.79792z"/>
   <path id="path20" style="font-variant-ligatures:none" d="m505.321433 364.60752q0 9.26208-4.3416 16.20864-4.3416 6.85008-12.44592 10.41984l9.45504 21.90096h-20.06784l-6.07824-18.71712h-13.0248l-3.76272 18.71712h-17.65584l13.5072-67.63248h30.3912q11.5776 0 17.75232 5.01696 6.2712 5.01696 6.2712 14.08608zm-43.70544 15.72624h12.73536q6.46416 0 10.1304-3.3768t3.66624-9.35856q0-3.8592-2.50848-5.88528-2.412-2.12256-7.04304-2.12256h-12.83184z"/>
   <path id="path22" style="font-variant-ligatures:none" d="m545.887428 398.08608h28.65456l-2.99088 15.05088h-46.3104l13.5072-67.63248h17.65584z"/>
   <path id="path24" style="font-variant-ligatures:none" d="m618.893308 344.4432q9.648 0 17.17344 4.14864 7.62192 4.05216 11.86704 11.28816t4.24512 16.30512q0 10.51632-5.40288 19.296t-14.66496 13.89312q-9.26208 5.01696-20.2608 5.01696-9.648 0-17.26992-4.14864-7.52544-4.14864-11.77056-11.38464-4.14864-7.33248-4.14864-16.49808 0-10.6128 5.40288-19.296t14.56848-13.60368q9.26208-5.01696 20.2608-5.01696zm-1.25424 14.9544q-5.40288 0-10.22688 2.8944t-7.7184 7.91136-2.8944 10.90224q0 5.11344 2.21904 9.26208t6.07824 6.56064 8.49024 2.412q5.3064 0 10.03392-2.8944 4.72752-2.99088 7.52544-8.00784t2.79792-10.99872q0-5.11344-2.12256-9.1656-2.12256-4.14864-5.88528-6.46416-3.76272-2.412-8.29728-2.412z"/>
   <path id="path26" style="font-variant-ligatures:none" d="m703.595873 378.01824h15.24384l-6.94656 35.11872h-12.92832l0.77184-4.05216q-8.10432 5.3064-16.30512 5.3064-8.97264 0-16.11216-4.14864-7.04304-4.14864-10.99872-11.38464-3.8592-7.236-3.8592-16.30512 0-10.6128 5.40288-19.296 5.49936-8.77968 14.85792-13.79664t20.45376-5.01696q7.62192 0 14.9544 2.79792 7.33248 2.70144 12.15648 7.33248l-11.28816 12.34944q-3.18384-3.47328-7.81488-5.49936-4.53456-2.02608-9.26208-2.02608-5.69232 0-10.6128 2.8944t-7.81488 7.91136-2.8944 11.0952q0 5.11344 2.02608 9.26208 2.12256 4.05216 5.7888 6.46416 3.76272 2.31552 8.49024 2.31552 3.56976 0 7.236-1.54368t6.46416-4.24512z"/>
   <path id="path28" style="font-variant-ligatures:none" d="m762.164432 344.4432q9.648 0 17.17344 4.14864 7.62192 4.05216 11.86704 11.28816t4.24512 16.30512q0 10.51632-5.40288 19.296t-14.66496 13.89312q-9.26208 5.01696-20.2608 5.01696-9.648 0-17.26992-4.14864-7.52544-4.14864-11.77056-11.38464-4.14864-7.33248-4.14864-16.49808 0-10.6128 5.40288-19.296t14.56848-13.60368q9.26208-5.01696 20.2608-5.01696zm-1.25424 14.9544q-5.40288 0-10.22688 2.8944t-7.7184 7.91136-2.8944 10.90224q0 5.11344 2.21904 9.26208t6.07824 6.56064 8.49024 2.412q5.3064 0 10.03392-2.8944 4.72752-2.99088 7.52544-8.00784t2.79792-10.99872q0-5.11344-2.12256-9.1656-2.12256-4.14864-5.88528-6.46416-3.76272-2.412-8.29728-2.412z"/>
  </g>
 </g>
</svg>
